<svg width="169" height="48" viewBox="0 0 169 48" fill="none" xmlns="http://www.w3.org/2000/svg">
<path d="M71.7361 16V9.18397H69.0481V7.59997H76.3681V9.18397H73.6801V16H71.7361Z" fill="#303030"/>
<path d="M82.8261 9.44797C83.3381 9.44797 83.7941 9.55197 84.1941 9.75997C84.6021 9.95997 84.9221 10.272 85.1541 10.696C85.3861 11.112 85.5021 11.648 85.5021 12.304V16H83.6301V12.592C83.6301 12.072 83.5141 11.688 83.2821 11.44C83.0581 11.192 82.7381 11.068 82.3221 11.068C82.0261 11.068 81.7581 11.132 81.5181 11.26C81.2861 11.38 81.1021 11.568 80.9661 11.824C80.8381 12.08 80.7741 12.408 80.7741 12.808V16H78.9021V7.09597H80.7741V11.332L80.3541 10.792C80.5861 10.36 80.9181 10.028 81.3501 9.79597C81.7821 9.56397 82.2741 9.44797 82.8261 9.44797Z" fill="#303030"/>
<path d="M92.0698 16.096C91.3338 16.096 90.6858 15.952 90.1258 15.664C89.5738 15.376 89.1458 14.984 88.8418 14.488C88.5378 13.984 88.3858 13.412 88.3858 12.772C88.3858 12.124 88.5338 11.552 88.8298 11.056C89.1338 10.552 89.5458 10.16 90.0658 9.87997C90.5858 9.59197 91.1738 9.44797 91.8298 9.44797C92.4618 9.44797 93.0298 9.58397 93.5338 9.85597C94.0458 10.12 94.4498 10.504 94.7458 11.008C95.0418 11.504 95.1898 12.1 95.1898 12.796C95.1898 12.868 95.1858 12.952 95.1778 13.048C95.1698 13.136 95.1618 13.22 95.1538 13.3H89.9098V12.208H94.1698L93.4498 12.532C93.4498 12.196 93.3818 11.904 93.2458 11.656C93.1098 11.408 92.9218 11.216 92.6818 11.08C92.4418 10.936 92.1618 10.864 91.8418 10.864C91.5218 10.864 91.2378 10.936 90.9898 11.08C90.7498 11.216 90.5618 11.412 90.4258 11.668C90.2898 11.916 90.2218 12.212 90.2218 12.556V12.844C90.2218 13.196 90.2978 13.508 90.4498 13.78C90.6098 14.044 90.8298 14.248 91.1098 14.392C91.3978 14.528 91.7338 14.596 92.1178 14.596C92.4618 14.596 92.7618 14.544 93.0178 14.44C93.2818 14.336 93.5218 14.18 93.7378 13.972L94.7338 15.052C94.4378 15.388 94.0658 15.648 93.6178 15.832C93.1698 16.008 92.6538 16.096 92.0698 16.096Z" fill="#303030"/>
<path d="M103.207 16V7.59997H104.815L108.391 13.528H107.539L111.055 7.59997H112.651L112.675 16H110.851L110.839 10.396H111.175L108.367 15.112H107.491L104.623 10.396H105.031V16H103.207Z" fill="#303030"/>
<path d="M119.228 16.096C118.54 16.096 117.928 15.952 117.392 15.664C116.864 15.376 116.444 14.984 116.132 14.488C115.827 13.984 115.675 13.412 115.675 12.772C115.675 12.124 115.827 11.552 116.132 11.056C116.444 10.552 116.864 10.16 117.392 9.87997C117.928 9.59197 118.54 9.44797 119.228 9.44797C119.908 9.44797 120.516 9.59197 121.052 9.87997C121.588 10.16 122.007 10.548 122.312 11.044C122.616 11.54 122.768 12.116 122.768 12.772C122.768 13.412 122.616 13.984 122.312 14.488C122.007 14.984 121.588 15.376 121.052 15.664C120.516 15.952 119.908 16.096 119.228 16.096ZM119.228 14.56C119.54 14.56 119.819 14.488 120.068 14.344C120.316 14.2 120.512 13.996 120.656 13.732C120.8 13.46 120.872 13.14 120.872 12.772C120.872 12.396 120.8 12.076 120.656 11.812C120.512 11.548 120.316 11.344 120.068 11.2C119.819 11.056 119.54 10.984 119.228 10.984C118.916 10.984 118.636 11.056 118.388 11.2C118.139 11.344 117.94 11.548 117.788 11.812C117.644 12.076 117.571 12.396 117.571 12.772C117.571 13.14 117.644 13.46 117.788 13.732C117.94 13.996 118.139 14.2 118.388 14.344C118.636 14.488 118.916 14.56 119.228 14.56Z" fill="#303030"/>
<path d="M127.215 16L124.503 9.54397H126.435L128.691 15.1H127.731L130.071 9.54397H131.871L129.147 16H127.215Z" fill="#303030"/>
<path d="M134.255 16V9.54397H136.127V16H134.255ZM135.191 8.64397C134.847 8.64397 134.567 8.54397 134.351 8.34397C134.135 8.14397 134.027 7.89597 134.027 7.59997C134.027 7.30397 134.135 7.05597 134.351 6.85597C134.567 6.65597 134.847 6.55597 135.191 6.55597C135.535 6.55597 135.815 6.65197 136.031 6.84397C136.247 7.02797 136.355 7.26797 136.355 7.56397C136.355 7.87597 136.247 8.13597 136.031 8.34397C135.823 8.54397 135.543 8.64397 135.191 8.64397Z" fill="#303030"/>
<path d="M142.688 16.096C141.952 16.096 141.304 15.952 140.744 15.664C140.192 15.376 139.764 14.984 139.46 14.488C139.156 13.984 139.004 13.412 139.004 12.772C139.004 12.124 139.152 11.552 139.448 11.056C139.752 10.552 140.164 10.16 140.684 9.87997C141.204 9.59197 141.792 9.44797 142.448 9.44797C143.08 9.44797 143.648 9.58397 144.152 9.85597C144.664 10.12 145.068 10.504 145.364 11.008C145.66 11.504 145.808 12.1 145.808 12.796C145.808 12.868 145.804 12.952 145.796 13.048C145.788 13.136 145.78 13.22 145.772 13.3H140.528V12.208H144.788L144.068 12.532C144.068 12.196 144 11.904 143.864 11.656C143.728 11.408 143.54 11.216 143.3 11.08C143.06 10.936 142.78 10.864 142.46 10.864C142.14 10.864 141.856 10.936 141.608 11.08C141.368 11.216 141.18 11.412 141.044 11.668C140.908 11.916 140.84 12.212 140.84 12.556V12.844C140.84 13.196 140.916 13.508 141.068 13.78C141.228 14.044 141.448 14.248 141.728 14.392C142.016 14.528 142.352 14.596 142.736 14.596C143.08 14.596 143.38 14.544 143.636 14.44C143.9 14.336 144.14 14.18 144.356 13.972L145.352 15.052C145.056 15.388 144.684 15.648 144.236 15.832C143.788 16.008 143.272 16.096 142.688 16.096Z" fill="#303030"/>
<path d="M73.5601 40V28.64H69.0801V26H81.2801V28.64H76.8001V40H73.5601Z" fill="#303030"/>
<path d="M83.0234 40V26H89.0834C90.3367 26 91.4167 26.2066 92.3234 26.62C93.23 27.02 93.93 27.6 94.4234 28.36C94.9167 29.12 95.1634 30.0266 95.1634 31.08C95.1634 32.12 94.9167 33.02 94.4234 33.78C93.93 34.5266 93.23 35.1 92.3234 35.5C91.4167 35.9 90.3367 36.1 89.0834 36.1H84.8234L86.2634 34.68V40H83.0234ZM91.9234 40L88.4234 34.92H91.8834L95.4234 40H91.9234ZM86.2634 35.04L84.8234 33.52H88.9034C89.9034 33.52 90.65 33.3066 91.1434 32.88C91.6367 32.44 91.8834 31.84 91.8834 31.08C91.8834 30.3066 91.6367 29.7066 91.1434 29.28C90.65 28.8533 89.9034 28.64 88.9034 28.64H84.8234L86.2634 27.1V35.04Z" fill="#303030"/>
<path d="M95.8904 40L102.13 26H105.33L111.59 40H108.19L103.07 27.64H104.35L99.2104 40H95.8904ZM99.0104 37L99.8704 34.54H107.07L107.95 37H99.0104Z" fill="#303030"/>
<path d="M119.548 40.24C118.468 40.24 117.461 40.0666 116.528 39.72C115.608 39.36 114.808 38.8533 114.128 38.2C113.448 37.5466 112.914 36.78 112.528 35.9C112.154 35.02 111.968 34.0533 111.968 33C111.968 31.9466 112.154 30.98 112.528 30.1C112.914 29.22 113.448 28.4533 114.128 27.8C114.821 27.1466 115.628 26.6466 116.548 26.3C117.468 25.94 118.474 25.76 119.568 25.76C120.781 25.76 121.874 25.9733 122.848 26.4C123.834 26.8133 124.661 27.4266 125.328 28.24L123.248 30.16C122.768 29.6133 122.234 29.2066 121.648 28.94C121.061 28.66 120.421 28.52 119.728 28.52C119.074 28.52 118.474 28.6266 117.928 28.84C117.381 29.0533 116.908 29.36 116.508 29.76C116.108 30.16 115.794 30.6333 115.568 31.18C115.354 31.7266 115.248 32.3333 115.248 33C115.248 33.6666 115.354 34.2733 115.568 34.82C115.794 35.3666 116.108 35.84 116.508 36.24C116.908 36.64 117.381 36.9466 117.928 37.16C118.474 37.3733 119.074 37.48 119.728 37.48C120.421 37.48 121.061 37.3466 121.648 37.08C122.234 36.8 122.768 36.38 123.248 35.82L125.328 37.74C124.661 38.5533 123.834 39.1733 122.848 39.6C121.874 40.0266 120.774 40.24 119.548 40.24Z" fill="#303030"/>
<path d="M130.416 36.8L130.236 33.06L136.936 26H140.536L134.496 32.5L132.696 34.42L130.416 36.8ZM127.516 40V26H130.736V40H127.516ZM137.096 40L132.116 33.9L134.236 31.6L140.876 40H137.096Z" fill="#303030"/>
<path d="M145.3 31.64H152.04V34.16H145.3V31.64ZM145.54 37.4H153.16V40H142.32V26H152.9V28.6H145.54V37.4Z" fill="#303030"/>
<path d="M155.738 40V26H161.798C163.052 26 164.132 26.2066 165.038 26.62C165.945 27.02 166.645 27.6 167.138 28.36C167.632 29.12 167.878 30.0266 167.878 31.08C167.878 32.12 167.632 33.02 167.138 33.78C166.645 34.5266 165.945 35.1 165.038 35.5C164.132 35.9 163.052 36.1 161.798 36.1H157.538L158.978 34.68V40H155.738ZM164.638 40L161.138 34.92H164.598L168.138 40H164.638ZM158.978 35.04L157.538 33.52H161.618C162.618 33.52 163.365 33.3066 163.858 32.88C164.352 32.44 164.598 31.84 164.598 31.08C164.598 30.3066 164.352 29.7066 163.858 29.28C163.365 28.8533 162.618 28.64 161.618 28.64H157.538L158.978 27.1V35.04Z" fill="#303030"/>
<rect width="48" height="48" rx="11" fill="#F25C05"/>
<path d="M14.8093 39.2471V9.60004H21.6705V33.6565H36.5364V39.2471H14.8093Z" fill="white"/>
</svg>
