<svg width="278" height="79" viewBox="0 0 278 79" fill="none" xmlns="http://www.w3.org/2000/svg">
<path d="M118.004 26.3333V15.1153H113.582V12.5083H125.623V15.1153H121.201V26.3333H118.004Z" fill="white"/>
<path d="M136.246 15.5498C137.088 15.5498 137.839 15.721 138.497 16.0633C139.168 16.3925 139.694 16.906 140.076 17.6038C140.457 18.2885 140.648 19.1706 140.648 20.2503V26.3333H137.569V20.7243C137.569 19.8685 137.378 19.2365 136.996 18.8283C136.628 18.4201 136.102 18.216 135.417 18.216C134.93 18.216 134.489 18.3214 134.095 18.532C133.713 18.7295 133.41 19.039 133.187 19.4603C132.976 19.8816 132.871 20.4215 132.871 21.0798V26.3333H129.791V11.6788H132.871V18.6505L132.18 17.7618C132.562 17.0508 133.108 16.5044 133.818 16.1225C134.529 15.7407 135.338 15.5498 136.246 15.5498Z" fill="white"/>
<path d="M151.452 26.4913C150.241 26.4913 149.175 26.2543 148.254 25.7803C147.346 25.3063 146.642 24.6611 146.142 23.8448C145.642 23.0153 145.392 22.0739 145.392 21.0205C145.392 19.954 145.635 19.0126 146.122 18.1963C146.622 17.3668 147.3 16.7216 148.155 16.2608C149.011 15.7868 149.978 15.5498 151.057 15.5498C152.097 15.5498 153.031 15.7736 153.86 16.2213C154.702 16.6558 155.367 17.2878 155.854 18.1173C156.341 18.9336 156.584 19.9145 156.584 21.06C156.584 21.1785 156.578 21.3168 156.565 21.4748C156.551 21.6196 156.538 21.7579 156.525 21.8895H147.899V20.0923H154.906L153.722 20.6255C153.722 20.0725 153.61 19.592 153.386 19.1838C153.163 18.7756 152.853 18.4596 152.459 18.2358C152.064 17.9988 151.603 17.8803 151.077 17.8803C150.551 17.8803 150.083 17.9988 149.675 18.2358C149.281 18.4596 148.971 18.7822 148.748 19.2035C148.524 19.6117 148.412 20.0989 148.412 20.665V21.139C148.412 21.7184 148.537 22.2319 148.787 22.6795C149.05 23.114 149.412 23.4498 149.873 23.6868C150.347 23.9106 150.899 24.0225 151.531 24.0225C152.097 24.0225 152.59 23.937 153.011 23.7658C153.446 23.5946 153.84 23.3379 154.196 22.9955L155.834 24.773C155.347 25.326 154.735 25.754 153.998 26.0568C153.261 26.3465 152.413 26.4913 151.452 26.4913Z" fill="white"/>
<path d="M169.772 26.3333V12.5083H172.417L178.299 22.2648H176.898L182.681 12.5083H185.307L185.346 26.3333H182.346L182.326 17.11H182.879L178.26 24.8718H176.819L172.101 17.11H172.772V26.3333H169.772Z" fill="white"/>
<path d="M196.126 26.4913C194.994 26.4913 193.987 26.2543 193.105 25.7803C192.237 25.3063 191.546 24.6611 191.033 23.8448C190.533 23.0153 190.283 22.0739 190.283 21.0205C190.283 19.954 190.533 19.0126 191.033 18.1963C191.546 17.3668 192.237 16.7216 193.105 16.2608C193.987 15.7868 194.994 15.5498 196.126 15.5498C197.244 15.5498 198.244 15.7868 199.126 16.2608C200.008 16.7216 200.699 17.3602 201.199 18.1765C201.699 18.9929 201.949 19.9409 201.949 21.0205C201.949 22.0739 201.699 23.0153 201.199 23.8448C200.699 24.6611 200.008 25.3063 199.126 25.7803C198.244 26.2543 197.244 26.4913 196.126 26.4913ZM196.126 23.9633C196.639 23.9633 197.099 23.8448 197.507 23.6078C197.915 23.3708 198.238 23.035 198.475 22.6005C198.711 22.1529 198.83 21.6262 198.83 21.0205C198.83 20.4017 198.711 19.875 198.475 19.4405C198.238 19.006 197.915 18.6703 197.507 18.4333C197.099 18.1963 196.639 18.0778 196.126 18.0778C195.612 18.0778 195.152 18.1963 194.744 18.4333C194.336 18.6703 194.007 19.006 193.757 19.4405C193.52 19.875 193.401 20.4017 193.401 21.0205C193.401 21.6262 193.52 22.1529 193.757 22.6005C194.007 23.035 194.336 23.3708 194.744 23.6078C195.152 23.8448 195.612 23.9633 196.126 23.9633Z" fill="white"/>
<path d="M209.265 26.3333L204.804 15.7078H207.982L211.693 24.852H210.114L213.963 15.7078H216.924L212.443 26.3333H209.265Z" fill="white"/>
<path d="M220.845 26.3333V15.7078H223.925V26.3333H220.845ZM222.385 14.2265C221.819 14.2265 221.358 14.062 221.003 13.7328C220.648 13.4036 220.47 12.9955 220.47 12.5083C220.47 12.0211 220.648 11.613 221.003 11.2838C221.358 10.9546 221.819 10.79 222.385 10.79C222.951 10.79 223.411 10.948 223.767 11.264C224.122 11.5669 224.3 11.9619 224.3 12.449C224.3 12.9625 224.122 13.3905 223.767 13.7328C223.424 14.062 222.964 14.2265 222.385 14.2265Z" fill="white"/>
<path d="M234.718 26.4913C233.507 26.4913 232.441 26.2543 231.52 25.7803C230.612 25.3063 229.908 24.6611 229.408 23.8448C228.908 23.0153 228.658 22.0739 228.658 21.0205C228.658 19.954 228.901 19.0126 229.388 18.1963C229.888 17.3668 230.566 16.7216 231.421 16.2608C232.277 15.7868 233.244 15.5498 234.323 15.5498C235.363 15.5498 236.297 15.7736 237.126 16.2213C237.968 16.6558 238.633 17.2878 239.12 18.1173C239.607 18.9336 239.85 19.9145 239.85 21.06C239.85 21.1785 239.844 21.3168 239.83 21.4748C239.817 21.6196 239.804 21.7579 239.791 21.8895H231.165V20.0923H238.172L236.988 20.6255C236.988 20.0725 236.876 19.592 236.652 19.1838C236.429 18.7756 236.119 18.4596 235.725 18.2358C235.33 17.9988 234.869 17.8803 234.343 17.8803C233.816 17.8803 233.349 17.9988 232.941 18.2358C232.546 18.4596 232.237 18.7822 232.013 19.2035C231.79 19.6117 231.678 20.0989 231.678 20.665V21.139C231.678 21.7184 231.803 22.2319 232.053 22.6795C232.316 23.114 232.678 23.4498 233.139 23.6868C233.612 23.9106 234.165 24.0225 234.797 24.0225C235.363 24.0225 235.856 23.937 236.277 23.7658C236.712 23.5946 237.106 23.3379 237.462 22.9955L239.1 24.773C238.613 25.326 238.001 25.754 237.264 26.0568C236.527 26.3465 235.678 26.4913 234.718 26.4913Z" fill="white"/>
<path d="M121.004 65.8333V47.1366H113.635V42.7916H133.703V47.1366H126.334V65.8333H121.004Z" fill="white"/>
<path d="M136.571 65.8333V42.7916H146.539C148.601 42.7916 150.378 43.1318 151.869 43.812C153.361 44.4704 154.512 45.425 155.324 46.6758C156.135 47.9266 156.541 49.4188 156.541 51.1525C156.541 52.8641 156.135 54.3454 155.324 55.5962C154.512 56.8251 153.361 57.7687 151.869 58.427C150.378 59.0854 148.601 59.4145 146.539 59.4145H139.532L141.901 57.0775V65.8333H136.571ZM151.211 65.8333L145.454 57.4725H151.145L156.968 65.8333H151.211ZM141.901 57.67L139.532 55.1683H146.243C147.888 55.1683 149.116 54.8172 149.928 54.115C150.74 53.3908 151.145 52.4033 151.145 51.1525C151.145 49.8797 150.74 48.8922 149.928 48.19C149.116 47.4877 147.888 47.1366 146.243 47.1366H139.532L141.901 44.602V57.67Z" fill="white"/>
<path d="M157.737 65.8333L168.001 42.7916H173.265L183.563 65.8333H177.97L169.548 45.4908H171.653L163.198 65.8333H157.737ZM162.869 60.8958L164.284 56.847H176.127L177.575 60.8958H162.869Z" fill="white"/>
<path d="M196.652 66.2283C194.876 66.2283 193.22 65.943 191.684 65.3725C190.171 64.78 188.855 63.9461 187.736 62.8708C186.618 61.7955 185.74 60.5337 185.104 59.0854C184.49 57.637 184.183 56.0461 184.183 54.3125C184.183 52.5788 184.49 50.9879 185.104 49.5395C185.74 48.0912 186.618 46.8294 187.736 45.7541C188.877 44.6788 190.204 43.8559 191.717 43.2854C193.231 42.6929 194.886 42.3966 196.685 42.3966C198.681 42.3966 200.479 42.7477 202.08 43.45C203.704 44.1302 205.063 45.1397 206.16 46.4783L202.738 49.6383C201.949 48.7386 201.072 48.0693 200.107 47.6304C199.141 47.1695 198.089 46.9391 196.948 46.9391C195.873 46.9391 194.886 47.1147 193.987 47.4658C193.088 47.8169 192.309 48.3216 191.651 48.98C190.993 49.6383 190.478 50.4173 190.105 51.317C189.754 52.2168 189.579 53.2152 189.579 54.3125C189.579 55.4097 189.754 56.4081 190.105 57.3079C190.478 58.2076 190.993 58.9866 191.651 59.645C192.309 60.3033 193.088 60.808 193.987 61.1591C194.886 61.5102 195.873 61.6858 196.948 61.6858C198.089 61.6858 199.141 61.4663 200.107 61.0275C201.072 60.5666 201.949 59.8754 202.738 58.9537L206.16 62.1137C205.063 63.4523 203.704 64.4727 202.08 65.175C200.479 65.8772 198.67 66.2283 196.652 66.2283Z" fill="white"/>
<path d="M214.53 60.5666L214.233 54.4112L225.255 42.7916H231.177L221.241 53.4895L218.28 56.6495L214.53 60.5666ZM209.759 65.8333V42.7916H215.056V65.8333H209.759ZM225.518 65.8333L217.326 55.7937L220.813 52.0083L231.736 65.8333H225.518Z" fill="white"/>
<path d="M239.014 52.0741H250.102V56.2216H239.014V52.0741ZM239.409 61.5541H251.944V65.8333H234.112V42.7916H251.516V47.0708H239.409V61.5541Z" fill="white"/>
<path d="M256.185 65.8333V42.7916H266.153C268.215 42.7916 269.991 43.1318 271.483 43.812C272.974 44.4704 274.126 45.425 274.937 46.6758C275.749 47.9266 276.155 49.4188 276.155 51.1525C276.155 52.8641 275.749 54.3454 274.937 55.5962C274.126 56.8251 272.974 57.7687 271.483 58.427C269.991 59.0854 268.215 59.4145 266.153 59.4145H259.146L261.514 57.0775V65.8333H256.185ZM270.825 65.8333L265.067 57.4725H270.759L276.582 65.8333H270.825ZM261.514 57.67L259.146 55.1683H265.857C267.502 55.1683 268.73 54.8172 269.542 54.115C270.353 53.3908 270.759 52.4033 270.759 51.1525C270.759 49.8797 270.353 48.8922 269.542 48.19C268.73 47.4877 267.502 47.1366 265.857 47.1366H259.146L261.514 44.602V57.67Z" fill="white"/>
<rect width="78.9586" height="79" rx="11" fill="white"/>
<path d="M24.361 64.5942V15.8H35.6475V55.393H60.1014V64.5942H24.361Z" fill="#DB3A00"/>
</svg>
